<svg width="22" height="25" viewBox="0 0 22 25" fill="none" xmlns="http://www.w3.org/2000/svg">
<path d="M1.5625 22.6562C1.5625 23.3035 1.79132 23.8559 2.24897 24.3135C2.70661 24.7712 3.25904 25 3.90625 25H17.9687C18.6159 25 19.1684 24.7712 19.626 24.3135C20.0837 23.8559 20.3125 23.3035 20.3125 22.6562V6.25001H1.5625V22.6562ZM14.8437 10.1563C14.8437 9.94052 14.92 9.75638 15.0726 9.60383C15.2251 9.45128 15.4093 9.37501 15.625 9.37501C15.8407 9.37501 16.0249 9.45128 16.1774 9.60383C16.33 9.75638 16.4062 9.94052 16.4062 10.1563V21.0938C16.4062 21.3095 16.33 21.4936 16.1774 21.6462C16.0249 21.7987 15.8407 21.875 15.625 21.875C15.4093 21.875 15.2251 21.7987 15.0726 21.6462C14.92 21.4936 14.8437 21.3095 14.8437 21.0938V10.1563ZM10.1562 10.1563C10.1562 9.94052 10.2325 9.75638 10.3851 9.60383C10.5376 9.45128 10.7218 9.37501 10.9375 9.37501C11.1532 9.37501 11.3374 9.45128 11.4899 9.60383C11.6425 9.75638 11.7187 9.94052 11.7187 10.1563V21.0938C11.7187 21.3095 11.6425 21.4936 11.4899 21.6462C11.3374 21.7987 11.1532 21.875 10.9375 21.875C10.7218 21.875 10.5376 21.7987 10.3851 21.6462C10.2325 21.4936 10.1562 21.3095 10.1562 21.0938V10.1563ZM5.46875 10.1563C5.46875 9.94052 5.54502 9.75638 5.69757 9.60383C5.85012 9.45128 6.03426 9.37501 6.25 9.37501C6.46573 9.37501 6.64988 9.45128 6.80242 9.60383C6.95497 9.75638 7.03125 9.94052 7.03125 10.1563V21.0938C7.03125 21.3095 6.95497 21.4936 6.80242 21.6462C6.64988 21.7987 6.46573 21.875 6.25 21.875C6.03426 21.875 5.85012 21.7987 5.69757 21.6462C5.54502 21.4936 5.46875 21.3095 5.46875 21.0938V10.1563ZM21.0937 1.56251H15.2344L14.7754 0.649423C14.6762 0.450337 14.5321 0.29229 14.3429 0.175282C14.1538 0.058274 13.948 -0.000150216 13.7256 9.25294e-06H8.14453C7.92253 -0.000844046 7.71726 0.0573206 7.52871 0.174503C7.34016 0.291686 7.19713 0.449993 7.09961 0.649423L6.64062 1.56251H0.78125C0.565514 1.56251 0.381371 1.63878 0.228823 1.79133C0.0762742 1.94388 0 2.12802 0 2.34376V3.90626C0 4.12199 0.0762742 4.30614 0.228823 4.45868C0.381371 4.61123 0.565513 4.68751 0.78125 4.68751H21.0937C21.3095 4.68751 21.4936 4.61123 21.6462 4.45868C21.7987 4.30614 21.875 4.12199 21.875 3.90626V2.34376C21.875 2.12802 21.7987 1.94388 21.6462 1.79133C21.4936 1.63878 21.3095 1.56251 21.0937 1.56251Z" fill="#232323"/>
</svg>
